# xmcd
#
# Track frame offsets:
#	150
#	24492
#	41096
#	57411
#	79317
#	97860
#	111614
#	133918
#	150396
#	172132
#
# Disc length: 2677 seconds
#
# Revision: 1
# Processed by: cddbd v1.5.2PL0 Copyright (c) Steve Scherf et al.
# Submitted via: audiograbber 1.83.01
#
DISCID=870a730a
DTITLE=Highway Found - The best is yet to come
DYEAR=2005
DGENRE=Country
TTITLE0=The best is yet to come
TTITLE1=Use me
TTITLE2=True love
TTITLE3=Trusting in you
TTITLE4=Destinies
TTITLE5=This I want to tell
TTITLE6=Time changes
TTITLE7=Suffering man confessions
TTITLE8=A good thing
TTITLE9=Hey little bird
EXTD=
EXTT0=
EXTT1=
EXTT2=
EXTT3=
EXTT4=
EXTT5=
EXTT6=
EXTT7=
EXTT8=
EXTT9=
PLAYORDER=
